<?xml version="1.0" standalone="no"?>
<!DOCTYPE svg PUBLIC "-//W3C//DTD SVG 20010904//EN"
 "http://www.w3.org/TR/2001/REC-SVG-20010904/DTD/svg10.dtd">
<svg version="1.0" xmlns="http://www.w3.org/2000/svg"
 width="692.000000pt" height="649.000000pt" viewBox="0 0 692.000000 649.000000"
 preserveAspectRatio="xMidYMid meet">

<g transform="translate(0.000000,649.000000) scale(0.100000,-0.100000)"
fill="#000000" stroke="none">
<path d="M3458 6484 c-5 -4 -8 -350 -9 -768 l0 -761 -190 734 c-104 404 -191
737 -194 739 -3 3 -8 3 -11 -1 -3 -3 37 -342 89 -754 53 -411 94 -749 93 -750
-1 -2 -128 314 -281 702 -265 668 -336 825 -280 618 59 -218 356 -1386 353
-1388 -2 -1 -167 296 -367 661 -200 365 -369 664 -376 664 -7 0 104 -292 266
-702 154 -385 278 -703 276 -705 -2 -2 -198 263 -435 589 -237 326 -438 602
-446 613 -8 11 -18 17 -22 13 -4 -4 158 -307 360 -674 202 -367 366 -668 364
-669 -3 -2 -783 824 -975 1032 -39 43 -74 75 -78 71 -9 -8 25 -59 35 -53 4 3
245 -247 534 -555 290 -308 530 -560 533 -560 2 0 -8 24 -25 53 -156 278 -703
1279 -700 1282 2 2 203 -271 447 -606 244 -335 445 -608 447 -606 2 2 -122
320 -276 707 -153 387 -278 706 -276 707 2 2 169 -298 371 -667 202 -369 370
-669 371 -667 2 2 -82 336 -186 743 -104 406 -190 744 -190 749 0 6 129 -315
287 -712 157 -398 288 -722 289 -720 2 2 -39 338 -92 747 -52 410 -93 751 -92
759 2 8 89 -319 193 -726 l190 -741 5 782 c3 429 6 775 8 768 1 -7 45 -351 97
-765 90 -715 109 -852 100 -727 -6 83 -184 1491 -192 1523 -5 16 -11 25 -15
21z m-391 -106 c-3 -8 -6 -5 -6 6 -1 11 2 17 5 13 3 -3 4 -12 1 -19z m-1107
-438 c6 -11 8 -20 6 -20 -3 0 -10 9 -16 20 -6 11 -8 20 -6 20 3 0 10 -9 16
-20z"/>
<path d="M1630 5687 c0 -3 191 -268 424 -589 234 -320 423 -584 422 -586 -2
-2 -265 213 -585 477 -320 265 -584 481 -586 481 -21 0 52 -82 477 -533 264
-282 500 -532 522 -556 l41 -44 -55 35 c-30 19 -145 91 -255 161 l-200 127
-53 100 c-29 55 -55 100 -57 100 -1 0 -15 -20 -29 -45 -15 -25 -29 -45 -31
-45 -2 0 -139 85 -303 190 -165 104 -304 191 -308 192 -39 13 27 -48 260 -240
149 -123 277 -229 285 -237 11 -11 6 -27 -33 -98 l-47 -86 -82 38 c-144 67
-602 283 -609 288 -5 2 -8 -2 -8 -9 0 -7 142 -103 315 -212 174 -109 318 -202
320 -206 5 -7 -68 -146 -85 -163 -4 -5 -160 41 -346 101 -382 124 -369 120
-369 107 0 -6 146 -79 324 -163 179 -84 327 -155 329 -157 3 -2 -4 -18 -14
-36 -13 -21 -48 -47 -106 -79 l-87 -48 -283 54 c-314 60 -298 58 -298 45 0 -5
100 -42 223 -81 122 -40 225 -75 229 -78 4 -4 -87 -58 -201 -119 -200 -109
-209 -113 -269 -113 -67 0 -83 -13 -29 -24 31 -7 32 -7 10 -19 -21 -12 0 -25
260 -167 l282 -155 -90 -6 c-49 -4 -186 -12 -302 -19 -324 -20 -288 -32 179
-59 291 -17 403 -27 430 -38 30 -12 44 -29 73 -84 20 -38 33 -69 30 -69 -17 0
-899 -171 -904 -175 -2 -3 -2 -8 1 -11 3 -3 225 9 493 26 268 17 489 29 490
28 15 -24 65 -121 63 -123 -2 -2 -218 -73 -481 -158 -264 -86 -481 -158 -485
-161 -3 -3 -3 -8 0 -11 4 -4 937 169 1024 190 17 4 26 -5 48 -45 15 -28 25
-54 22 -58 -2 -4 -192 -95 -420 -202 -228 -107 -415 -198 -416 -202 0 -3 91
37 203 89 111 52 301 142 421 199 121 56 223 101 227 98 4 -2 21 -29 37 -59
l29 -54 -281 -91 c-490 -159 -625 -204 -621 -208 1 -2 206 63 455 143 427 139
452 146 465 128 12 -17 14 -16 25 9 11 24 33 33 184 82 94 30 172 54 173 52 1
-1 -252 -163 -562 -360 -311 -197 -565 -360 -565 -363 0 -3 15 4 33 14 66 40
1162 736 1171 743 4 5 -81 -21 -190 -56 -109 -35 -202 -63 -206 -62 -4 2 18
50 50 107 l57 103 115 54 c63 30 112 54 109 54 -4 0 -44 -7 -89 -16 -45 -8
-84 -13 -86 -11 -2 2 50 102 116 223 l120 220 398 218 c218 120 401 222 405
226 5 4 -159 99 -365 210 -205 111 -389 213 -408 225 -23 15 -48 47 -74 94
-21 40 -36 74 -34 76 2 2 45 -16 96 -40 51 -24 91 -41 88 -37 -2 4 -65 56
-138 117 l-134 109 -73 134 c-40 73 -71 135 -69 137 2 2 114 -66 248 -151 135
-86 256 -162 270 -171 31 -20 76 -68 -521 567 -266 283 -491 524 -499 535 -23
30 13 1 615 -498 308 -255 561 -463 563 -462 3 2 -880 1219 -899 1240 -5 5 -9
6 -9 2z m-260 -745 c151 -95 279 -177 283 -182 9 -8 -16 -64 -33 -75 -7 -5
-494 386 -545 438 -15 15 -4 8 295 -181z m-170 -312 c168 -79 306 -144 308
-145 2 -2 -6 -22 -18 -45 l-21 -41 -32 19 c-83 49 -563 355 -572 364 -7 7 -4
7 10 0 11 -5 157 -74 325 -152z m-170 -314 c177 -58 324 -107 327 -109 7 -7
-26 -67 -40 -73 -10 -3 -600 267 -616 282 -9 8 15 1 329 -100z m1175 -144 c-1
-1 -32 12 -69 29 -53 25 -71 39 -86 70 -11 21 -20 41 -20 44 0 3 40 -27 89
-67 48 -40 87 -74 86 -76z m-1380 -177 c132 -25 245 -47 250 -49 6 -2 -11 -13
-36 -26 l-45 -22 -215 71 c-118 38 -210 70 -204 71 5 0 118 -20 250 -45z
m-302 -352 c-7 -2 -21 -2 -30 0 -10 3 -4 5 12 5 17 0 24 -2 18 -5z m602 -403
c47 -26 63 -40 48 -40 -30 0 -662 40 -693 44 -15 2 -10 4 15 5 22 2 121 8 220
15 99 7 216 14 260 14 76 2 84 -1 150 -38z m263 -285 c25 -46 27 -55 14 -55
-10 0 -219 -14 -467 -29 -247 -16 -451 -28 -452 -27 -3 3 835 164 859 165 10
1 28 -20 46 -54z m144 -262 c23 -40 27 -54 16 -58 -23 -8 -971 -185 -974 -182
-5 5 900 296 915 294 7 -1 27 -26 43 -54z m433 -12 c-33 -16 -61 -27 -63 -25
-11 9 22 43 45 47 73 11 77 5 18 -22z"/>
<path d="M1628 2062 c-345 -163 -625 -298 -623 -300 2 -2 272 123 601 277 329
154 599 280 600 278 1 -1 -191 -161 -427 -356 -236 -194 -434 -361 -441 -370
-12 -15 -11 -15 7 0 116 94 895 737 910 751 11 10 15 18 10 17 -6 -1 -292
-134 -637 -297z"/>
<path d="M2365 2179 c-16 -11 -29 -23 -28 -28 1 -4 -234 -259 -523 -567 -289
-307 -521 -560 -515 -562 6 -2 272 213 592 478 320 265 583 480 584 478 2 -2
-196 -278 -440 -613 -244 -336 -444 -613 -445 -617 0 -5 4 -8 8 -8 5 0 236
242 515 538 278 296 514 545 523 553 14 10 12 3 -7 -31 -72 -125 -699 -1267
-704 -1282 -4 -10 -3 -18 2 -18 5 0 208 275 452 610 244 336 445 609 447 607
2 -2 -121 -318 -274 -703 -153 -384 -274 -701 -269 -703 13 -5 28 21 22 37 -3
7 -1 11 4 8 5 -3 168 284 362 638 195 354 355 643 357 641 3 -2 -361 -1429
-373 -1462 -2 -7 1 -13 8 -13 7 0 136 313 292 709 154 390 281 708 282 707 2
-1 -41 -341 -93 -755 -53 -414 -93 -755 -90 -758 3 -4 8 -4 11 -1 3 2 89 333
192 735 l188 731 3 -756 c2 -688 7 -838 26 -751 9 39 196 1542 195 1564 0 11
-2 16 -4 10 -3 -5 -47 -351 -100 -767 -52 -416 -96 -763 -97 -770 -2 -7 -5
339 -8 769 l-5 782 -190 -741 c-104 -408 -191 -735 -193 -727 -1 8 40 349 93
758 52 410 93 746 91 748 -1 2 -130 -319 -286 -712 -156 -393 -285 -714 -286
-712 -2 2 82 336 186 742 104 406 188 740 187 741 -2 2 -169 -298 -371 -667
-203 -368 -370 -668 -372 -666 -2 2 120 316 272 698 152 382 280 705 285 719
l9 25 -20 -25 c-19 -24 -24 -36 -21 -53 1 -5 -2 -6 -7 -3 -5 3 -196 -254 -426
-570 -230 -316 -421 -573 -423 -570 -4 4 581 1076 694 1274 14 23 23 42 20 42
-2 0 -237 -248 -522 -550 -284 -303 -519 -549 -522 -547 -2 3 190 272 428 598
237 326 438 604 448 618 9 14 -36 -17 -99 -70 -184 -152 -1053 -870 -1075
-888 -31 -24 7 17 520 564 546 582 530 565 524 564 -2 0 -17 -9 -34 -20z
m-725 -1389 c-6 -11 -13 -20 -16 -20 -2 0 0 9 6 20 6 11 13 20 16 20 2 0 0 -9
-6 -20z m340 -207 c0 -5 -10 -19 -21 -33 l-20 -25 16 33 c15 30 25 41 25 25z"/>
<path d="M1848 1852 c-256 -163 -464 -299 -462 -301 3 -3 916 571 939 591 41
36 -72 -33 -477 -290z"/>
</g>
</svg>
